<svg xmlns="http://www.w3.org/2000/svg" viewBox="0 0 1080.69 844.22"><defs><style>.cls-1,.cls-13,.cls-14,.cls-16,.cls-18,.cls-2,.cls-3,.cls-4,.cls-5,.cls-6,.cls-7,.cls-8,.cls-9{fill:none;}.cls-1,.cls-11,.cls-13,.cls-14,.cls-15,.cls-16,.cls-17,.cls-18,.cls-2,.cls-3,.cls-4,.cls-5,.cls-6,.cls-7,.cls-8,.cls-9{stroke:#fff;}.cls-1,.cls-11,.cls-14,.cls-15,.cls-16,.cls-17,.cls-18,.cls-2,.cls-3,.cls-4,.cls-5,.cls-6,.cls-7,.cls-8,.cls-9{stroke-miterlimit:10;}.cls-2{stroke-dasharray:10.94 10.94;}.cls-3{stroke-dasharray:12.96 12.96;}.cls-4{stroke-dasharray:10.77 10.77;}.cls-5{stroke-dasharray:12.02 12.02;}.cls-6{stroke-dasharray:10.77 10.77;}.cls-7{stroke-dasharray:10.94 10.94;}.cls-8{stroke-dasharray:10.64 10.64;}.cls-9{stroke-dasharray:12.11 12.11;}.cls-10,.cls-17{opacity:0.5;}.cls-11,.cls-12,.cls-17{fill:#fff;}.cls-13,.cls-16{stroke-linecap:round;stroke-width:2px;}.cls-13{stroke-miterlimit:5;}.cls-14{stroke-width:3px;}.cls-15{fill:#ccc;}.cls-18{stroke-dasharray:12;}</style></defs><g id="Layer_2" data-name="Layer 2"><g id="Layer_3" data-name="Layer 3"><path class="cls-1" d="M200,676.58,369.85,771.5a14.33,14.33,0,0,0,14.16-.11L774.87,545a5.93,5.93,0,0,0,0-10.28L727,507.54l-31.11-7.39-39-23-6.32-13.74L602.76,438.5a8.4,8.4,0,0,0-8.12.18L199.93,667.29A5.35,5.35,0,0,0,200,676.58Z"/><path class="cls-1" d="M787.53,540.64c.42-11.66-4.4-12.07-12.35-16.72L615.36,430.49a24.09,24.09,0,0,0-24.21-.05L201.43,656.14c-8,4.61-12.9,7.5-12.9,16.5,0,10,4.91,11.61,12.86,16.26l160,93.53c7.38,4.31,16.5,4.33,26.63,1L777.86,557.69C783.11,552.08,787.1,552.3,787.53,540.64Z"/><polygon class="cls-1" points="803.35 788.6 802.9 612.08 1059.53 458.48 1059.98 635 803.35 788.6"/><path class="cls-1" d="M1068.46,431.75c10.32,5.44,10.18,5.81,10.25,15l1.47,185.12a24,24,0,0,1-12,21L803.43,810.56c-8,4.62-7.84,4.61-18.25-1.36s-10.12-5.7-10.19-14.92L773.52,609a23.75,23.75,0,0,1,11.85-20.75l264.9-157.73C1058.24,425.88,1058.14,426.32,1068.46,431.75Z"/><line class="cls-1" x1="296.53" y1="380.14" x2="296.56" y2="386.14"/><line class="cls-2" x1="296.61" y1="397.08" x2="297.09" y2="501.05"/><polyline class="cls-1" points="297.12 506.52 297.14 512.52 302.34 515.51"/><line class="cls-3" x1="313.57" y1="521.99" x2="420.22" y2="583.45"/><polyline class="cls-1" points="425.83 586.68 431.03 589.68 431.01 595.68"/><line class="cls-4" x1="430.96" y1="606.45" x2="430.9" y2="622.59"/><line class="cls-1" x1="430.88" y1="627.98" x2="430.85" y2="633.98"/><line class="cls-1" x1="545.53" y1="171.14" x2="545.53" y2="177.14"/><line class="cls-5" x1="545.53" y1="189.16" x2="545.53" y2="423.63"/><polyline class="cls-1" points="545.53 429.64 545.53 435.64 540.34 438.64"/><line class="cls-6" x1="531.01" y1="444.04" x2="498.38" y2="462.93"/><polyline class="cls-1" points="493.72 465.63 488.53 468.64 488.54 474.64"/><line class="cls-7" x1="488.57" y1="485.58" x2="488.82" y2="589.51"/><line class="cls-1" x1="488.84" y1="594.98" x2="488.85" y2="600.98"/><line class="cls-1" x1="773.53" y1="326.14" x2="773.6" y2="332.14"/><line class="cls-8" x1="773.72" y1="342.78" x2="774.4" y2="401.32"/><polyline class="cls-1" points="774.46 406.64 774.53 412.64 769.35 415.66"/><line class="cls-9" x1="758.89" y1="421.77" x2="575.94" y2="528.56"/><polyline class="cls-1" points="570.71 531.61 565.53 534.64 565.26 540.63"/><line class="cls-1" x1="564.8" y1="550.64" x2="564.53" y2="556.64"/><g class="cls-10"><path class="cls-11" d="M737.49,259.48l16.4,9.45a1,1,0,0,1,0,1.73L747,274.78a2,2,0,0,1-2,0l-16.05-9.54a1,1,0,0,1,0-1.72l6.57-4A2,2,0,0,1,737.49,259.48Z"/><path class="cls-11" d="M766.49,275.48l16.4,9.45a1,1,0,0,1,0,1.73L776,290.78a2,2,0,0,1-2,0l-16.05-9.54a1,1,0,0,1,0-1.72l6.57-4A2,2,0,0,1,766.49,275.48Z"/><path class="cls-11" d="M794.49,291.48l16.4,9.45a1,1,0,0,1,0,1.73L804,306.78a2,2,0,0,1-2,0l-16.05-9.54a1,1,0,0,1,0-1.72l6.57-4A2,2,0,0,1,794.49,291.48Z"/><path class="cls-11" d="M717.49,270.48l16.4,9.45a1,1,0,0,1,0,1.73L727,285.78a2,2,0,0,1-2,0l-16.05-9.54a1,1,0,0,1,0-1.72l6.57-4A2,2,0,0,1,717.49,270.48Z"/><path class="cls-11" d="M746.49,286.48l16.4,9.45a1,1,0,0,1,0,1.73L756,301.78a2,2,0,0,1-2,0l-16.05-9.54a1,1,0,0,1,0-1.72l6.57-4A2,2,0,0,1,746.49,286.48Z"/><path class="cls-11" d="M774.49,302.48l16.4,9.45a1,1,0,0,1,0,1.73L784,317.78a2,2,0,0,1-2,0l-16.05-9.54a1,1,0,0,1,0-1.72l6.57-4A2,2,0,0,1,774.49,302.48Z"/><path class="cls-11" d="M697.49,281.48l16.4,9.45a1,1,0,0,1,0,1.73L707,296.78a2,2,0,0,1-2,0l-16.05-9.54a1,1,0,0,1,0-1.72l6.57-4A2,2,0,0,1,697.49,281.48Z"/><path class="cls-11" d="M679.49,292.48l45.4,26.45a1,1,0,0,1,0,1.73L718,324.78a2,2,0,0,1-2,0l-45.05-26.54a1,1,0,0,1,0-1.72l6.57-4A2,2,0,0,1,679.49,292.48Z"/><path class="cls-11" d="M736.49,325.48l45.4,26.45a1,1,0,0,1,0,1.73L775,357.78a2,2,0,0,1-2,0l-45.05-26.54a1,1,0,0,1,0-1.72l6.57-4A2,2,0,0,1,736.49,325.48Z"/><path class="cls-11" d="M661.49,302.48l45.4,26.45a1,1,0,0,1,0,1.73L700,334.78a2,2,0,0,1-2,0l-45.05-26.54a1,1,0,0,1,0-1.72l6.57-4A2,2,0,0,1,661.49,302.48Z"/><path class="cls-11" d="M718.49,335.48l45.4,26.45a1,1,0,0,1,0,1.73L757,367.78a2,2,0,0,1-2,0l-45.05-26.54a1,1,0,0,1,0-1.72l6.57-4A2,2,0,0,1,718.49,335.48Z"/><path class="cls-11" d="M726.49,297.48l16.4,9.45a1,1,0,0,1,0,1.73L736,312.78a2,2,0,0,1-2,0l-16.05-9.54a1,1,0,0,1,0-1.72l6.57-4A2,2,0,0,1,726.49,297.48Z"/><path class="cls-11" d="M754.49,313.48l16.4,9.45a1,1,0,0,1,0,1.73L764,328.78a2,2,0,0,1-2,0l-16.05-9.54a1,1,0,0,1,0-1.72l6.57-4A2,2,0,0,1,754.49,313.48Z"/><path class="cls-11" d="M823.49,308.48l16.4,9.45a1,1,0,0,1,0,1.73L833,323.78a2,2,0,0,1-2,0l-16.05-9.54a1,1,0,0,1,0-1.72l6.57-4A2,2,0,0,1,823.49,308.48Z"/><path class="cls-11" d="M803.49,319.48l16.4,9.45a1,1,0,0,1,0,1.73L813,334.78a2,2,0,0,1-2,0l-16.05-9.54a1,1,0,0,1,0-1.72l6.57-4A2,2,0,0,1,803.49,319.48Z"/><path class="cls-11" d="M783.49,330.48l16.4,9.45a1,1,0,0,1,0,1.73L793,345.78a2,2,0,0,1-2,0l-16.05-9.54a1,1,0,0,1,0-1.72l6.57-4A2,2,0,0,1,783.49,330.48Z"/></g><path class="cls-1" d="M852.49,193.48l16.4,9.45a1,1,0,0,1,0,1.73L862,208.78a2,2,0,0,1-2,0l-16.05-9.54a1,1,0,0,1,0-1.72l6.57-4A2,2,0,0,1,852.49,193.48Z"/><path class="cls-1" d="M881.49,209.48l16.4,9.45a1,1,0,0,1,0,1.73L891,224.78a2,2,0,0,1-2,0l-16.05-9.54a1,1,0,0,1,0-1.72l6.57-4A2,2,0,0,1,881.49,209.48Z"/><path class="cls-1" d="M909.49,225.48l16.4,9.45a1,1,0,0,1,0,1.73L919,240.78a2,2,0,0,1-2,0l-16.05-9.54a1,1,0,0,1,0-1.72l6.57-4A2,2,0,0,1,909.49,225.48Z"/><path class="cls-1" d="M832.49,204.48l16.4,9.45a1,1,0,0,1,0,1.73L842,219.78a2,2,0,0,1-2,0l-16.05-9.54a1,1,0,0,1,0-1.72l6.57-4A2,2,0,0,1,832.49,204.48Z"/><path class="cls-1" d="M861.49,220.48l16.4,9.45a1,1,0,0,1,0,1.73L871,235.78a2,2,0,0,1-2,0l-16.05-9.54a1,1,0,0,1,0-1.72l6.57-4A2,2,0,0,1,861.49,220.48Z"/><path class="cls-1" d="M889.49,236.48l16.4,9.45a1,1,0,0,1,0,1.73L899,251.78a2,2,0,0,1-2,0l-16.05-9.54a1,1,0,0,1,0-1.72l6.57-4A2,2,0,0,1,889.49,236.48Z"/><path class="cls-1" d="M812.49,215.48l16.4,9.45a1,1,0,0,1,0,1.73L822,230.78a2,2,0,0,1-2,0l-16.05-9.54a1,1,0,0,1,0-1.72l6.57-4A2,2,0,0,1,812.49,215.48Z"/><path class="cls-1" d="M794.49,226.48l45.4,26.45a1,1,0,0,1,0,1.73L833,258.78a2,2,0,0,1-2,0l-45.05-26.54a1,1,0,0,1,0-1.72l6.57-4A2,2,0,0,1,794.49,226.48Z"/><path class="cls-1" d="M851.49,259.48l45.4,26.45a1,1,0,0,1,0,1.73L890,291.78a2,2,0,0,1-2,0l-45.05-26.54a1,1,0,0,1,0-1.72l6.57-4A2,2,0,0,1,851.49,259.48Z"/><path class="cls-1" d="M776.49,236.48l45.4,26.45a1,1,0,0,1,0,1.73L815,268.78a2,2,0,0,1-2,0l-45.05-26.54a1,1,0,0,1,0-1.72l6.57-4A2,2,0,0,1,776.49,236.48Z"/><path class="cls-1" d="M833.49,269.48l45.4,26.45a1,1,0,0,1,0,1.73L872,301.78a2,2,0,0,1-2,0l-45.05-26.54a1,1,0,0,1,0-1.72l6.57-4A2,2,0,0,1,833.49,269.48Z"/><path class="cls-1" d="M841.49,231.48l16.4,9.45a1,1,0,0,1,0,1.73L851,246.78a2,2,0,0,1-2,0l-16.05-9.54a1,1,0,0,1,0-1.72l6.57-4A2,2,0,0,1,841.49,231.48Z"/><path class="cls-1" d="M869.49,247.48l16.4,9.45a1,1,0,0,1,0,1.73L879,262.78a2,2,0,0,1-2,0l-16.05-9.54a1,1,0,0,1,0-1.72l6.57-4A2,2,0,0,1,869.49,247.48Z"/><path class="cls-1" d="M938.49,242.48l16.4,9.45a1,1,0,0,1,0,1.73L948,257.78a2,2,0,0,1-2,0l-16.05-9.54a1,1,0,0,1,0-1.72l6.57-4A2,2,0,0,1,938.49,242.48Z"/><path class="cls-1" d="M918.49,253.48l16.4,9.45a1,1,0,0,1,0,1.73L928,268.78a2,2,0,0,1-2,0l-16.05-9.54a1,1,0,0,1,0-1.72l6.57-4A2,2,0,0,1,918.49,253.48Z"/><path class="cls-1" d="M898.49,264.48l16.4,9.45a1,1,0,0,1,0,1.73L908,279.78a2,2,0,0,1-2,0l-16.05-9.54a1,1,0,0,1,0-1.72l6.57-4A2,2,0,0,1,898.49,264.48Z"/><g class="cls-10"><path class="cls-12" d="M967.49,127.48l16.4,9.45a1,1,0,0,1,0,1.73L977,142.78a2,2,0,0,1-2,0l-16.05-9.54a1,1,0,0,1,0-1.72l6.57-4A2,2,0,0,1,967.49,127.48Z"/><path class="cls-12" d="M996.49,143.48l16.4,9.45a1,1,0,0,1,0,1.73l-6.92,4.12a2,2,0,0,1-2,0l-16.05-9.54a1,1,0,0,1,0-1.72l6.57-4A2,2,0,0,1,996.49,143.48Z"/><path class="cls-12" d="M1024.49,159.48l16.4,9.45a1,1,0,0,1,0,1.73l-6.92,4.12a2,2,0,0,1-2,0l-16.05-9.54a1,1,0,0,1,0-1.72l6.57-4A2,2,0,0,1,1024.49,159.48Z"/><path class="cls-12" d="M947.49,138.48l16.4,9.45a1,1,0,0,1,0,1.73L957,153.78a2,2,0,0,1-2,0l-16.05-9.54a1,1,0,0,1,0-1.72l6.57-4A2,2,0,0,1,947.49,138.48Z"/><path class="cls-12" d="M976.49,154.48l16.4,9.45a1,1,0,0,1,0,1.73L986,169.78a2,2,0,0,1-2,0l-16.05-9.54a1,1,0,0,1,0-1.72l6.57-4A2,2,0,0,1,976.49,154.48Z"/><path class="cls-12" d="M1004.49,170.48l16.4,9.45a1,1,0,0,1,0,1.73l-6.92,4.12a2,2,0,0,1-2,0l-16.05-9.54a1,1,0,0,1,0-1.72l6.57-4A2,2,0,0,1,1004.49,170.48Z"/><path class="cls-12" d="M927.49,149.48l16.4,9.45a1,1,0,0,1,0,1.73L937,164.78a2,2,0,0,1-2,0l-16.05-9.54a1,1,0,0,1,0-1.72l6.57-4A2,2,0,0,1,927.49,149.48Z"/><path class="cls-12" d="M909.49,160.48l45.4,26.45a1,1,0,0,1,0,1.73L948,192.78a2,2,0,0,1-2,0l-45.05-26.54a1,1,0,0,1,0-1.72l6.57-4A2,2,0,0,1,909.49,160.48Z"/><path class="cls-12" d="M966.49,193.48l45.4,26.45a1,1,0,0,1,0,1.73l-6.92,4.12a2,2,0,0,1-2,0l-45.05-26.54a1,1,0,0,1,0-1.72l6.57-4A2,2,0,0,1,966.49,193.48Z"/><path class="cls-12" d="M891.49,170.48l45.4,26.45a1,1,0,0,1,0,1.73L930,202.78a2,2,0,0,1-2,0l-45.05-26.54a1,1,0,0,1,0-1.72l6.57-4A2,2,0,0,1,891.49,170.48Z"/><path class="cls-12" d="M948.49,203.48l45.4,26.45a1,1,0,0,1,0,1.73L987,235.78a2,2,0,0,1-2,0l-45.05-26.54a1,1,0,0,1,0-1.72l6.57-4A2,2,0,0,1,948.49,203.48Z"/><path class="cls-12" d="M956.49,165.48l16.4,9.45a1,1,0,0,1,0,1.73L966,180.78a2,2,0,0,1-2,0l-16.05-9.54a1,1,0,0,1,0-1.72l6.57-4A2,2,0,0,1,956.49,165.48Z"/><path class="cls-12" d="M984.49,181.48l16.4,9.45a1,1,0,0,1,0,1.73L994,196.78a2,2,0,0,1-2,0l-16.05-9.54a1,1,0,0,1,0-1.72l6.57-4A2,2,0,0,1,984.49,181.48Z"/><path class="cls-12" d="M1053.49,176.48l16.4,9.45a1,1,0,0,1,0,1.73l-6.92,4.12a2,2,0,0,1-2,0l-16-9.54a1,1,0,0,1,0-1.72l6.57-4A2,2,0,0,1,1053.49,176.48Z"/><path class="cls-12" d="M1033.49,187.48l16.4,9.45a1,1,0,0,1,0,1.73l-6.92,4.12a2,2,0,0,1-2,0l-16-9.54a1,1,0,0,1,0-1.72l6.57-4A2,2,0,0,1,1033.49,187.48Z"/><path class="cls-12" d="M1013.49,198.48l16.4,9.45a1,1,0,0,1,0,1.73l-6.92,4.12a2,2,0,0,1-2,0l-16.05-9.54a1,1,0,0,1,0-1.72l6.57-4A2,2,0,0,1,1013.49,198.48Z"/></g><path class="cls-1" d="M691.79,12.05l32.46,18.08a8.09,8.09,0,0,0,8.19-.18l6.32-3.6A1.92,1.92,0,0,0,738.7,23L706.08,4.64a7,7,0,0,0-7.05.1l-7.29,4A1.92,1.92,0,0,0,691.79,12.05Z"/><line class="cls-13" x1="708.7" y1="1" x2="728.59" y2="12.48"/><path class="cls-1" d="M660.79,31.05l127.88,73.56a8.11,8.11,0,0,0,8.19-.19l6.32-3.6a1.91,1.91,0,0,0-.06-3.3l-128-73.88a7,7,0,0,0-7.05.1l-7.29,4A1.92,1.92,0,0,0,660.79,31.05Z"/><line class="cls-13" x1="677.7" y1="20" x2="697.59" y2="31.48"/><path class="cls-1" d="M739.79,39.05l32.46,18.08a8.09,8.09,0,0,0,8.19-.18l6.32-3.6A1.92,1.92,0,0,0,786.7,50l-32.62-18.4a7,7,0,0,0-7.05.1l-7.29,4A1.92,1.92,0,0,0,739.79,39.05Z"/><line class="cls-13" x1="756.7" y1="28" x2="776.59" y2="39.48"/><path class="cls-1" d="M627.79,50.05l55.46,32.08a8.09,8.09,0,0,0,8.19-.18l6.32-3.6A1.92,1.92,0,0,0,697.7,75l-55.62-32.4a7,7,0,0,0-7.05.1l-7.29,4A1.92,1.92,0,0,0,627.79,50.05Z"/><line class="cls-13" x1="644.7" y1="39" x2="664.59" y2="50.48"/><path class="cls-1" d="M698.79,90.05l56.46,32.08a8.09,8.09,0,0,0,8.19-.18l6.32-3.6a1.92,1.92,0,0,0-.06-3.31l-56.62-32.4a7,7,0,0,0-7.05.1l-7.29,4A1.92,1.92,0,0,0,698.79,90.05Z"/><line class="cls-13" x1="714.77" y1="78.83" x2="734.65" y2="90.31"/><path class="cls-1" d="M788.79,67.05l32.46,18.08a8.09,8.09,0,0,0,8.19-.18l6.32-3.6A1.92,1.92,0,0,0,835.7,78l-32.62-18.4a7,7,0,0,0-7.05.1l-7.29,4A1.92,1.92,0,0,0,788.79,67.05Z"/><line class="cls-13" x1="805.7" y1="56" x2="825.59" y2="67.48"/><path class="cls-1" d="M564.79,85.05l32.46,18.08a8.09,8.09,0,0,0,8.19-.18l6.32-3.6A1.92,1.92,0,0,0,611.7,96l-32.62-18.4a7,7,0,0,0-7.05.1l-7.29,4A1.92,1.92,0,0,0,564.79,85.05Z"/><line class="cls-13" x1="581.7" y1="74" x2="601.59" y2="85.48"/><path class="cls-1" d="M533.79,104.05l127.88,73.56a8.11,8.11,0,0,0,8.19-.19l6.32-3.6a1.91,1.91,0,0,0-.06-3.3l-128-73.88a7,7,0,0,0-7.05.1l-7.29,4A1.92,1.92,0,0,0,533.79,104.05Z"/><line class="cls-13" x1="550.7" y1="93" x2="570.59" y2="104.48"/><path class="cls-1" d="M612.79,112.05l32.46,18.08a8.09,8.09,0,0,0,8.19-.18l6.32-3.6a1.92,1.92,0,0,0-.06-3.31l-32.62-18.4a7,7,0,0,0-7.05.1l-7.29,4A1.92,1.92,0,0,0,612.79,112.05Z"/><line class="cls-13" x1="629.7" y1="101" x2="649.59" y2="112.48"/><path class="cls-1" d="M500.79,123.05l55.46,32.08a8.09,8.09,0,0,0,8.19-.18l6.32-3.6a1.92,1.92,0,0,0-.06-3.31l-55.62-32.4a7,7,0,0,0-7.05.1l-7.29,4A1.92,1.92,0,0,0,500.79,123.05Z"/><line class="cls-13" x1="517.7" y1="112" x2="537.59" y2="123.48"/><path class="cls-1" d="M571.79,163.05l56.46,32.08a8.09,8.09,0,0,0,8.19-.18l6.32-3.6a1.92,1.92,0,0,0-.06-3.31l-56.62-32.4a7,7,0,0,0-7.05.1l-7.29,4A1.92,1.92,0,0,0,571.79,163.05Z"/><line class="cls-13" x1="587.77" y1="151.83" x2="607.65" y2="163.31"/><path class="cls-1" d="M661.79,140.05l32.46,18.08a8.09,8.09,0,0,0,8.19-.18l6.32-3.6a1.92,1.92,0,0,0-.06-3.31l-32.62-18.4a7,7,0,0,0-7.05.1l-7.29,4A1.92,1.92,0,0,0,661.79,140.05Z"/><line class="cls-13" x1="678.7" y1="129" x2="698.59" y2="140.48"/><path class="cls-1" d="M442.79,154.05l32.46,18.08a8.09,8.09,0,0,0,8.19-.18l6.32-3.6a1.92,1.92,0,0,0-.06-3.31l-32.62-18.4a7,7,0,0,0-7.05.1l-7.29,4A1.92,1.92,0,0,0,442.79,154.05Z"/><line class="cls-13" x1="459.7" y1="143" x2="479.59" y2="154.48"/><path class="cls-1" d="M411.79,173.05l127.88,73.56a8.11,8.11,0,0,0,8.19-.19l6.32-3.6a1.91,1.91,0,0,0-.06-3.3l-128-73.88a7,7,0,0,0-7.05.1l-7.29,4A1.92,1.92,0,0,0,411.79,173.05Z"/><line class="cls-13" x1="428.7" y1="162" x2="448.59" y2="173.48"/><path class="cls-1" d="M490.79,181.05l32.46,18.08a8.09,8.09,0,0,0,8.19-.18l6.32-3.6a1.92,1.92,0,0,0-.06-3.31l-32.62-18.4a7,7,0,0,0-7.05.1l-7.29,4A1.92,1.92,0,0,0,490.79,181.05Z"/><line class="cls-13" x1="507.7" y1="170" x2="527.59" y2="181.48"/><path class="cls-1" d="M378.79,192.05l55.46,32.08a8.09,8.09,0,0,0,8.19-.18l6.32-3.6a1.92,1.92,0,0,0-.06-3.31l-55.62-32.4a7,7,0,0,0-7.05.1l-7.29,4A1.92,1.92,0,0,0,378.79,192.05Z"/><line class="cls-13" x1="395.7" y1="181" x2="415.59" y2="192.48"/><path class="cls-1" d="M449.79,232.05l56.46,32.08a8.09,8.09,0,0,0,8.19-.18l6.32-3.6a1.92,1.92,0,0,0-.06-3.31l-56.62-32.4a7,7,0,0,0-7.05.1l-7.29,4A1.92,1.92,0,0,0,449.79,232.05Z"/><line class="cls-13" x1="465.77" y1="220.83" x2="485.65" y2="232.31"/><path class="cls-1" d="M539.79,209.05l32.46,18.08a8.09,8.09,0,0,0,8.19-.18l6.32-3.6a1.92,1.92,0,0,0-.06-3.31l-32.62-18.4a7,7,0,0,0-7.05.1l-7.29,4A1.92,1.92,0,0,0,539.79,209.05Z"/><line class="cls-13" x1="556.7" y1="198" x2="576.59" y2="209.48"/><path class="cls-12" d="M322.53,291.64c-14.25,0-25,6.66-25,15.5s10.75,15.5,25,15.5,25-6.67,25-15.5S336.78,291.64,322.53,291.64Zm0,28c-12.15,0-22-5.6-22-12.5s9.85-12.5,22-12.5,22,5.59,22,12.5S334.68,319.64,322.53,319.64Z"/><polyline class="cls-1" points="259.2 369.17 221.95 347.67 259.2 325.04"/><line class="cls-14" x1="240.31" y1="336" x2="270.53" y2="353.64"/><line class="cls-14" x1="253.31" y1="328" x2="268.53" y2="336.64"/><line class="cls-14" x1="246.31" y1="332" x2="257.53" y2="338.64"/><line class="cls-14" x1="233.31" y1="340" x2="268.53" y2="360.64"/><line class="cls-14" x1="227.31" y1="344" x2="246.42" y2="355.04"/><polygon class="cls-12" points="165.63 385.04 203.85 362.97 205.76 364.31 167.76 386.31 165.63 385.04"/><polygon class="cls-12" points="170.63 388.04 200.04 370.43 201.95 371.77 172.76 389.31 170.63 388.04"/><polygon class="cls-12" points="175.63 391.04 194.78 379.8 196.69 381.14 177.76 392.31 175.63 391.04"/><polygon class="cls-12" points="181.63 394.04 204.47 380.68 206.38 382.02 183.76 395.31 181.63 394.04"/><polygon class="cls-12" points="186.63 397.04 211.73 382.24 213.64 383.58 188.76 398.31 186.63 397.04"/><polyline class="cls-1" points="210.53 355.84 163.2 383.17 193.1 400.44"/><polygon class="cls-1" points="373.52 336.07 392.52 325.11 430.74 347.17 410.8 358.68 403.79 354.43 400.32 355.54 401.13 352.82 373.52 336.07"/><polygon class="cls-1" points="392.74 369.72 373.74 380.68 335.52 358.62 355.46 347.11 362.47 351.36 365.94 350.25 365.13 352.97 392.74 369.72"/><polygon class="cls-1" points="77.44 446.21 173.57 501.72 96.55 545.51 1 490.34 77.44 446.21"/><path class="cls-15" d="M70.24,507.59,86.63,517a1,1,0,0,1,0,1.73l-6.92,4.12a2,2,0,0,1-2,0l-16.05-9.55a1,1,0,0,1,0-1.71l6.57-4A2,2,0,0,1,70.24,507.59Z"/><path class="cls-1" d="M41.24,491.59,57.63,501a1,1,0,0,1,0,1.73l-6.92,4.12a2,2,0,0,1-2,0l-16-9.55a1,1,0,0,1,0-1.71l6.57-4A2,2,0,0,1,41.24,491.59Z"/><line class="cls-1" x1="74.66" y1="458.52" x2="95.53" y2="470.64"/><line class="cls-1" x1="67.88" y1="462.76" x2="143.96" y2="506.68"/><line class="cls-1" x1="62.88" y1="465.76" x2="138.96" y2="509.68"/><line class="cls-1" x1="57.88" y1="468.76" x2="133.96" y2="512.68"/><line class="cls-1" x1="52.88" y1="471.76" x2="128.96" y2="515.68"/><line class="cls-1" x1="47.88" y1="474.76" x2="123.96" y2="518.68"/><line class="cls-1" x1="42.88" y1="477.76" x2="99.53" y2="510.64"/><path class="cls-1" d="M120.24,432.59,136.63,442a1,1,0,0,1,0,1.73l-3.92,2.12a2,2,0,0,1-2,0l-16.05-9.55a1,1,0,0,1,0-1.71l3.57-2A2,2,0,0,1,120.24,432.59Z"/><line class="cls-16" x1="151.88" y1="412.76" x2="165.53" y2="420.64"/><line class="cls-1" x1="146.88" y1="415.76" x2="198.96" y2="446.68"/><line class="cls-1" x1="141.88" y1="418.76" x2="193.96" y2="449.68"/><line class="cls-1" x1="136.88" y1="421.76" x2="188.96" y2="452.68"/><line class="cls-1" x1="131.88" y1="424.76" x2="183.96" y2="455.68"/><line class="cls-1" x1="126.88" y1="427.76" x2="159.53" y2="447.64"/><polygon class="cls-1" points="119.67 409.8 133.54 401.93 147.29 409.8 133.89 417.81 119.67 409.8"/><ellipse class="cls-17" cx="239.03" cy="417.14" rx="4" ry="2"/><line class="cls-16" x1="245.42" y1="421.17" x2="264.52" y2="432.21"/><ellipse class="cls-17" cx="229.03" cy="423.14" rx="4" ry="2"/><line class="cls-16" x1="235.42" y1="427.17" x2="254.52" y2="438.21"/><ellipse class="cls-17" cx="218.03" cy="430.14" rx="4" ry="2"/><line class="cls-16" x1="224.42" y1="434.17" x2="243.52" y2="445.21"/><polygon class="cls-1" points="316.3 369.17 354.63 391.17 341.62 398.69 341.71 400.79 338.53 400.64 335.47 402.24 297.03 380.14 316.3 369.17"/><polygon class="cls-1" points="297.36 424.24 259.03 402.24 272.05 394.72 271.95 392.63 275.13 392.77 278.2 391.17 316.63 413.27 297.36 424.24"/><path class="cls-1" d="M893.51,756.93c-.11,12.39,4.84,26.24,15.68,44.89l86-51C983,733,977.35,719.64,978,706.64"/><polyline class="cls-1" points="902.22 795.79 882.45 807.21 901.55 818.24 1016.21 752.04 997.1 741.01 988.19 746.15"/><polyline class="cls-18" points="431.07 766.31 430.53 810.64 487.53 843.64 754.39 689.08 774.24 700.31"/><polyline class="cls-18" points="487.53 734.14 487.53 777.64 507.25 788.23 755.53 644.64 775.03 655.98"/><polyline class="cls-18" points="564.53 688.9 564.53 710.97 583.94 722.18 773.53 612.64"/></g></g></svg>